<?xml version="1.0" encoding="utf-8"?>
<!-- Generator: Adobe Illustrator 14.0.0, SVG Export Plug-In . SVG Version: 6.00 Build 43363)  -->
<!DOCTYPE svg PUBLIC "-//W3C//DTD SVG 1.1//EN" "http://www.w3.org/Graphics/SVG/1.1/DTD/svg11.dtd">
<svg version="1.1" id="Layer_1" xmlns="http://www.w3.org/2000/svg" xmlns:xlink="http://www.w3.org/1999/xlink" x="0px" y="0px"
	 width="50px" height="50px" viewBox="0 0 50 50" enable-background="new 0 0 50 50" xml:space="preserve">
<rect x="-0.001" y="10.938" width="3.125" height="3.125"/>
<rect x="-0.001" y="14.062" width="3.125" height="3.125"/>
<rect x="-0.001" y="17.188" width="3.125" height="3.125"/>
<rect x="3.124" y="20.312" width="3.125" height="3.125"/>
<rect x="43.75" y="20.312" width="3.125" height="3.125"/>
<rect x="3.124" y="23.438" width="3.125" height="3.125"/>
<rect x="6.25" y="26.562" width="3.125" height="3.125"/>
<rect x="40.625" y="26.562" width="3.125" height="3.125"/>
<rect x="9.375" y="29.688" width="3.125" height="3.125"/>
<rect x="37.5" y="29.688" width="3.125" height="3.125"/>
<rect x="12.5" y="32.812" width="3.125" height="3.125"/>
<rect x="34.375" y="32.812" width="3.125" height="3.125"/>
<rect x="31.25" y="35.938" width="3.125" height="3.125"/>
<rect x="15.625" y="35.938" width="3.125" height="3.125"/>
<rect x="18.75" y="39.062" width="3.125" height="3.125"/>
<rect x="28.124" y="39.062" width="3.125" height="3.125"/>
<rect x="24.998" y="42.188" width="3.125" height="3.125"/>
<rect x="21.874" y="42.188" width="3.125" height="3.125"/>
<rect x="43.749" y="23.438" width="3.125" height="3.125"/>
<rect x="46.876" y="14.062" width="3.125" height="3.125"/>
<rect x="46.876" y="17.188" width="3.125" height="3.125"/>
<rect x="3.124" y="7.812" width="3.125" height="3.125"/>
<rect x="6.25" y="4.688" width="3.125" height="3.125"/>
<rect x="9.375" y="1.562" width="3.125" height="3.125"/>
<rect x="12.5" y="1.562" width="3.125" height="3.125"/>
<rect x="15.625" y="1.562" width="3.125" height="3.125"/>
<rect x="18.75" y="4.688" width="3.125" height="3.125"/>
<rect x="21.874" y="7.812" width="3.125" height="3.125"/>
<rect x="24.999" y="7.812" width="3.125" height="3.125"/>
<rect x="28.124" y="4.688" width="3.125" height="3.125"/>
<rect x="31.25" y="1.562" width="3.125" height="3.125"/>
<rect x="34.375" y="1.562" width="3.126" height="3.125"/>
<rect x="37.501" y="1.562" width="3.125" height="3.125"/>
<rect x="40.625" y="4.688" width="3.125" height="3.125"/>
<rect x="43.751" y="7.812" width="3.125" height="3.125"/>
<rect x="46.876" y="10.938" width="3.125" height="3.125"/>
</svg>
