<?xml version="1.0" encoding="utf-8"?>
<!-- Generator: Adobe Illustrator 14.0.0, SVG Export Plug-In . SVG Version: 6.00 Build 43363)  -->
<!DOCTYPE svg PUBLIC "-//W3C//DTD SVG 1.1//EN" "http://www.w3.org/Graphics/SVG/1.1/DTD/svg11.dtd">
<svg version="1.1" id="Layer_1" xmlns="http://www.w3.org/2000/svg" xmlns:xlink="http://www.w3.org/1999/xlink" x="0px" y="0px"
	 width="50px" height="50px" viewBox="0 0 50 50" enable-background="new 0 0 50 50" xml:space="preserve">
<rect x="3.124" y="18.75" width="3.125" height="3.125"/>
<rect x="43.75" y="18.75" width="3.125" height="3.125"/>
<rect x="3.124" y="21.875" width="3.125" height="3.125"/>
<rect x="43.749" y="21.875" width="3.125" height="3.125"/>
<rect x="21.874" y="6.25" width="3.125" height="3.125"/>
<rect x="18.75" y="6.25" width="3.125" height="3.125"/>
<rect x="24.999" y="6.25" width="3.125" height="3.125"/>
<rect x="21.874" y="3.125" width="3.125" height="3.125"/>
<rect x="24.999" y="3.125" width="3.125" height="3.125"/>
<rect x="21.875" y="9.375" width="3.125" height="3.125"/>
<rect x="18.75" y="9.375" width="3.125" height="3.125"/>
<rect x="25" y="9.375" width="3.125" height="3.125"/>
<rect x="21.875" y="12.5" width="3.125" height="3.125"/>
<rect x="18.75" y="12.5" width="3.125" height="3.125"/>
<rect x="15.626" y="12.5" width="3.125" height="3.125"/>
<rect x="25" y="12.5" width="3.125" height="3.125"/>
<rect x="21.875" y="15.625" width="3.125" height="3.125"/>
<rect x="18.75" y="15.625" width="3.125" height="3.125"/>
<rect x="15.626" y="15.625" width="3.125" height="3.125"/>
<rect x="25" y="15.625" width="3.125" height="3.125"/>
<rect x="28.125" y="6.25" width="3.125" height="3.125"/>
<rect x="28.125" y="9.375" width="3.125" height="3.125"/>
<rect x="31.25" y="12.5" width="3.125" height="3.125"/>
<rect x="28.125" y="12.5" width="3.125" height="3.125"/>
<rect x="31.25" y="15.625" width="3.125" height="3.125"/>
<rect x="28.125" y="15.625" width="3.125" height="3.125"/>
<rect x="28.125" y="18.75" width="3.125" height="3.125"/>
<rect x="25" y="18.75" width="3.125" height="3.125"/>
<rect x="21.875" y="18.75" width="3.125" height="3.125"/>
<rect x="18.75" y="18.75" width="3.125" height="3.125"/>
<rect x="15.625" y="18.75" width="3.125" height="3.125"/>
<rect x="12.5" y="18.75" width="3.125" height="3.125"/>
<rect x="31.249" y="18.75" width="3.126" height="3.125"/>
<rect x="28.125" y="21.875" width="3.125" height="3.125"/>
<rect x="25.001" y="21.875" width="3.125" height="3.125"/>
<rect x="21.876" y="21.875" width="3.125" height="3.125"/>
<rect x="18.751" y="21.875" width="3.125" height="3.125"/>
<rect x="15.626" y="21.875" width="3.125" height="3.125"/>
<rect x="12.501" y="21.875" width="3.125" height="3.125"/>
<rect x="31.25" y="21.875" width="3.125" height="3.125"/>
<rect x="9.375" y="18.75" width="3.125" height="3.125"/>
<rect x="9.376" y="21.875" width="3.125" height="3.125"/>
<rect x="6.25" y="18.75" width="3.125" height="3.125"/>
<rect x="6.251" y="21.875" width="3.125" height="3.125"/>
<rect x="34.375" y="18.75" width="3.126" height="3.125"/>
<rect x="34.376" y="21.875" width="3.125" height="3.125"/>
<rect x="37.498" y="18.75" width="3.126" height="3.125"/>
<rect x="37.499" y="21.875" width="3.125" height="3.125"/>
<rect x="40.624" y="18.75" width="3.126" height="3.125"/>
<rect x="40.625" y="21.875" width="3.125" height="3.125"/>
<rect x="21.874" width="3.125" height="3.125"/>
<rect x="24.999" width="3.125" height="3.125"/>
<rect x="6.25" y="43.75" width="3.125" height="3.125"/>
<rect x="40.627" y="43.75" width="3.125" height="3.125"/>
<rect x="6.249" y="46.875" width="3.125" height="3.125"/>
<rect x="40.626" y="46.875" width="3.125" height="3.125"/>
<rect x="9.376" y="25" width="3.125" height="3.125"/>
<rect x="12.502" y="25" width="3.125" height="3.125"/>
<rect x="15.627" y="25" width="3.125" height="3.125"/>
<rect x="18.751" y="28.125" width="3.125" height="3.125"/>
<rect x="21.876" y="31.25" width="3.125" height="3.125"/>
<rect x="18.751" y="31.25" width="3.125" height="3.125"/>
<rect x="15.627" y="28.125" width="3.125" height="3.125"/>
<rect x="15.627" y="31.25" width="3.125" height="3.125"/>
<rect x="12.502" y="28.125" width="3.125" height="3.125"/>
<rect x="25" y="31.25" width="3.125" height="3.125"/>
<rect x="21.876" y="28.125" width="3.125" height="3.125"/>
<rect x="25" y="28.125" width="3.125" height="3.125"/>
<rect x="21.876" y="34.375" width="3.125" height="3.125"/>
<rect x="18.751" y="34.375" width="3.125" height="3.125"/>
<rect x="15.626" y="34.375" width="3.125" height="3.125"/>
<rect x="9.376" y="34.375" width="3.125" height="3.125"/>
<rect x="6.25" y="37.5" width="3.125" height="3.125"/>
<rect x="18.751" y="37.5" width="3.125" height="3.125"/>
<rect x="15.626" y="37.5" width="3.125" height="3.125"/>
<rect x="12.501" y="37.5" width="3.125" height="3.125"/>
<rect x="6.25" y="40.625" width="3.125" height="3.125"/>
<rect x="15.626" y="40.625" width="3.125" height="3.125"/>
<rect x="12.501" y="40.625" width="3.125" height="3.125"/>
<rect x="9.376" y="37.5" width="3.125" height="3.125"/>
<rect x="12.5" y="34.375" width="3.125" height="3.125"/>
<rect x="12.502" y="31.25" width="3.125" height="3.125"/>
<rect x="9.376" y="40.625" width="3.125" height="3.125"/>
<rect x="34.376" y="31.25" width="3.125" height="3.125"/>
<rect x="31.252" y="31.25" width="3.125" height="3.125"/>
<rect x="34.377" y="28.125" width="3.125" height="3.125"/>
<rect x="31.253" y="28.125" width="3.125" height="3.125"/>
<rect x="28.127" y="31.25" width="3.125" height="3.125"/>
<rect x="34.377" y="34.375" width="3.125" height="3.125"/>
<rect x="31.252" y="34.375" width="3.125" height="3.125"/>
<rect x="28.127" y="34.375" width="3.125" height="3.125"/>
<rect x="25.002" y="34.375" width="3.125" height="3.125"/>
<rect x="37.501" y="34.375" width="3.126" height="3.125"/>
<rect x="34.377" y="37.5" width="3.125" height="3.125"/>
<rect x="31.252" y="37.5" width="3.125" height="3.125"/>
<rect x="28.127" y="37.5" width="3.125" height="3.125"/>
<rect x="37.501" y="37.5" width="3.126" height="3.125"/>
<rect x="34.377" y="40.625" width="3.125" height="3.125"/>
<rect x="31.252" y="40.625" width="3.125" height="3.125"/>
<rect x="37.501" y="40.625" width="3.126" height="3.125"/>
<rect x="40.626" y="37.5" width="3.126" height="3.125"/>
<rect x="40.626" y="40.625" width="3.126" height="3.125"/>
<rect x="12.501" y="43.75" width="3.125" height="3.125"/>
<rect x="9.375" y="43.75" width="3.125" height="3.125"/>
<rect x="34.375" y="43.75" width="3.126" height="3.125"/>
<rect x="37.501" y="43.75" width="3.126" height="3.125"/>
<rect x="28.126" y="28.125" width="3.125" height="3.125"/>
<rect x="18.751" y="25" width="3.125" height="3.125"/>
<rect x="21.876" y="25" width="3.125" height="3.125"/>
<rect x="25" y="25" width="3.125" height="3.125"/>
<rect x="28.126" y="25" width="3.125" height="3.125"/>
<rect x="31.252" y="25" width="3.125" height="3.125"/>
<rect x="34.377" y="25" width="3.126" height="3.125"/>
<rect x="37.503" y="25" width="3.125" height="3.125"/>
<rect x="6.251" y="25" width="3.125" height="3.125"/>
<rect x="40.627" y="25" width="3.125" height="3.125"/>
<rect x="0" y="18.75" width="3.125" height="3.125"/>
<rect x="0" y="21.875" width="3.125" height="3.125"/>
<rect x="46.877" y="21.875" width="3.125" height="3.125"/>
<rect x="46.877" y="18.75" width="3.125" height="3.125"/>
<rect x="3.124" y="43.75" width="3.125" height="3.125"/>
<rect x="43.752" y="43.75" width="3.125" height="3.125"/>
<rect x="3.125" y="46.875" width="3.125" height="3.125"/>
<rect x="43.753" y="46.875" width="3.125" height="3.125"/>
</svg>
