<?xml version="1.0" encoding="utf-8"?>
<!-- Generator: Adobe Illustrator 14.0.0, SVG Export Plug-In . SVG Version: 6.00 Build 43363)  -->
<!DOCTYPE svg PUBLIC "-//W3C//DTD SVG 1.1//EN" "http://www.w3.org/Graphics/SVG/1.1/DTD/svg11.dtd">
<svg version="1.1" id="Layer_1" xmlns="http://www.w3.org/2000/svg" xmlns:xlink="http://www.w3.org/1999/xlink" x="0px" y="0px"
	 width="50px" height="50px" viewBox="0 0 50 50" enable-background="new 0 0 50 50" xml:space="preserve">
<g>
	<rect x="5.166" y="8.822" stroke="#000000" width="3.595" height="3.596"/>
	<rect x="41.121" y="8.817" stroke="#000000" width="3.596" height="3.596"/>
	<rect x="15.952" y="5.227" stroke="#000000" width="3.596" height="3.595"/>
	<rect x="30.334" y="5.222" stroke="#000000" width="3.596" height="3.595"/>
	<rect x="23.143" y="1.631" stroke="#000000" width="3.596" height="3.596"/>
	<rect x="19.548" y="1.631" stroke="#000000" width="3.596" height="3.596"/>
	<rect x="37.525" y="8.817" stroke="#000000" width="3.596" height="3.596"/>
	<rect x="33.93" y="8.817" stroke="#000000" width="3.596" height="3.596"/>
	<rect x="30.334" y="8.817" stroke="#000000" width="3.596" height="3.596"/>
	<rect x="23.144" y="8.822" stroke="#000000" width="3.596" height="3.596"/>
	<rect x="19.548" y="8.822" stroke="#000000" width="3.596" height="3.596"/>
	<rect x="15.952" y="8.822" stroke="#000000" width="3.596" height="3.596"/>
	<rect x="12.357" y="8.822" stroke="#000000" width="3.595" height="3.596"/>
	<rect x="8.761" y="8.822" stroke="#000000" width="3.596" height="3.596"/>
	<rect x="5.166" y="12.443" stroke="#000000" width="3.595" height="3.596"/>
	<rect x="8.761" y="16.013" stroke="#000000" width="3.596" height="3.595"/>
	<rect x="8.761" y="19.608" stroke="#000000" width="3.596" height="3.596"/>
	<rect x="8.761" y="23.199" stroke="#000000" width="3.596" height="3.596"/>
	<rect x="8.761" y="26.795" stroke="#000000" width="3.596" height="3.596"/>
	<rect x="8.761" y="30.391" stroke="#000000" width="3.596" height="3.595"/>
	<rect x="8.761" y="33.985" stroke="#000000" width="3.596" height="3.596"/>
	<rect x="8.761" y="37.581" stroke="#000000" width="3.596" height="3.596"/>
	<rect x="15.952" y="20.102" stroke="#000000" width="3.596" height="3.595"/>
	<rect x="15.952" y="23.692" stroke="#000000" width="3.596" height="3.596"/>
	<rect x="15.952" y="27.288" stroke="#000000" width="3.596" height="3.596"/>
	<rect x="15.952" y="30.884" stroke="#000000" width="3.596" height="3.595"/>
	<rect x="15.952" y="34.479" stroke="#000000" width="3.596" height="3.596"/>
	<rect x="15.952" y="38.074" stroke="#000000" width="3.596" height="3.596"/>
	<rect x="23.144" y="20.1" stroke="#000000" width="3.596" height="3.595"/>
	<rect x="26.739" y="8.822" stroke="#000000" width="3.595" height="3.596"/>
	<rect x="23.144" y="23.69" stroke="#000000" width="3.596" height="3.596"/>
	<rect x="23.144" y="27.286" stroke="#000000" width="3.596" height="3.595"/>
	<rect x="23.144" y="30.881" stroke="#000000" width="3.596" height="3.596"/>
	<rect x="23.144" y="34.477" stroke="#000000" width="3.596" height="3.596"/>
	<rect x="26.739" y="44.772" stroke="#000000" width="3.595" height="3.596"/>
	<rect x="26.739" y="1.631" stroke="#000000" width="3.595" height="3.596"/>
	<rect x="23.144" y="38.072" stroke="#000000" width="3.596" height="3.595"/>
	<rect x="30.334" y="20.1" stroke="#000000" width="3.596" height="3.595"/>
	<rect x="30.334" y="23.69" stroke="#000000" width="3.596" height="3.596"/>
	<rect x="30.334" y="27.286" stroke="#000000" width="3.596" height="3.595"/>
	<rect x="30.334" y="30.881" stroke="#000000" width="3.596" height="3.596"/>
	<rect x="30.334" y="34.477" stroke="#000000" width="3.596" height="3.596"/>
	<rect x="30.334" y="38.072" stroke="#000000" width="3.596" height="3.595"/>
	<rect x="8.761" y="41.177" stroke="#000000" width="3.596" height="3.596"/>
	<rect x="12.357" y="44.772" stroke="#000000" width="3.595" height="3.595"/>
	<rect x="15.952" y="44.772" stroke="#000000" width="3.596" height="3.595"/>
	<rect x="19.548" y="44.772" stroke="#000000" width="3.596" height="3.595"/>
	<rect x="23.144" y="44.772" stroke="#000000" width="3.596" height="3.595"/>
	<rect x="30.334" y="44.768" stroke="#000000" width="3.596" height="3.596"/>
	<rect x="33.93" y="44.768" stroke="#000000" width="3.596" height="3.596"/>
	<rect x="37.525" y="41.172" stroke="#000000" width="3.596" height="3.596"/>
	<rect x="37.525" y="37.576" stroke="#000000" width="3.596" height="3.596"/>
	<rect x="37.525" y="33.981" stroke="#000000" width="3.596" height="3.595"/>
	<rect x="37.525" y="30.386" stroke="#000000" width="3.596" height="3.596"/>
	<rect x="37.525" y="26.79" stroke="#000000" width="3.596" height="3.596"/>
	<rect x="37.525" y="23.194" stroke="#000000" width="3.596" height="3.596"/>
	<rect x="37.525" y="19.604" stroke="#000000" width="3.596" height="3.595"/>
	<rect x="37.525" y="16.009" stroke="#000000" width="3.596" height="3.595"/>
	<rect x="41.121" y="12.413" stroke="#000000" width="3.596" height="3.596"/>
</g>
</svg>
